<svg id="elpT9mPMqdN1" xmlns="http://www.w3.org/2000/svg" xmlns:xlink="http://www.w3.org/1999/xlink" viewBox="0 0 1024 1024" shape-rendering="geometricPrecision" text-rendering="geometricPrecision" project-id="f5a90d5a36e64d73b871b944b754804a" export-id="b5fdcd1d15634ec88f46376a5aecf487" cached="false"><g transform="translate(.000001-28)"><g><path d="M756.65434,301.11526C755.02993,430.91844,641.0213,543.3646,500.24349,541.81292c-140.76354-1.55168-254.75201-108.55987-256.40497-240.69766-.68034-54.40175,89.14859-54.33867,89.82809,0c1.0583,84.63817,74.78086,157.38567,166.57773,156.37487c91.78259-1.01237,165.50515-70.21656,166.58193-156.37487.68202-54.33867,90.50926-54.40175,89.82809,0h-.00002Z" transform="translate(0 0.569143)" fill="#525355"/></g></g><g transform="translate(.000001-28)"><path d="M294.919025,344.251338C296.202025,234.979338,383.969,128.111,493.243,126.828c109.292-1.283,197.069028,110.076341,198.331028,217.423341.812,68.919,107.763145,68.998003,106.952145.000003C796.560173,176.660344,660.839,21.842,493.243,19.88C325.639,17.917,189.902019,180.345182,187.971019,344.973182c-.811,68.998,106.140006,68.197156,106.948006-.721844Z" transform="matrix(.839923 0 0 0.788454 85.957338 22.394904)" fill="#525355"/></g><g transform="translate(0-59.999999)"><path d="M115.375,959.993c-1.931998-209.165687,176.17-391.575,389.721-389.721c213.532,1.856,404.582395,187.004686,389.716,389.721-5.207716,71.011775-112.355587,70.656932-106.947,0c6.051792-79.059662-29.795-148.686-84.79-201.905-52.777-51.076-123.78-81.513-197.979-80.867-75.787.66-148.685,29.799-201.904,84.794-51.723,53.445-80.288494,123.29042-80.868,197.979-.578104,74.507939-90.972034,72.645258-106.949-.001Z" transform="matrix(-.999992-.003927 0.003927-.999992 1013.983534 1643.766904)" fill="#333"/><path d="M270.569268,807.746523c0,0,234.526732-.000001,234.526732-.000001s332.086378,0,332.086378,0s0,103.798283,0,103.798283-146.083975,0-146.083975,0-186.002403,0-186.002403,0-199.482638,0-199.482638,0-35.044094,0-35.044094,0c0-19.923704,0-62.675722,0-103.798282Z" transform="matrix(1.161947 0 0 0.951666-131.57435-140.062702)" fill="#333"/></g></svg>
